<svg width="135" height="63" viewBox="0 0 135 63" fill="none" xmlns="http://www.w3.org/2000/svg">
<path d="M35.6954 13.1595V16.6795H30.1354V18.6395H34.1354V21.9795H30.1354V27.3195H25.6954V13.1595H35.6954ZM41.6393 12.5195V27.3195H37.1993V12.5195H41.6393ZM45.8846 15.1395C45.1113 15.1395 44.4913 14.9329 44.0246 14.5195C43.5579 14.1062 43.3246 13.5862 43.3246 12.9595C43.3246 12.3195 43.5579 11.7929 44.0246 11.3795C44.4913 10.9529 45.1113 10.7395 45.8846 10.7395C46.6446 10.7395 47.2579 10.9529 47.7246 11.3795C48.1913 11.7929 48.4246 12.3195 48.4246 12.9595C48.4246 13.5862 48.1913 14.1062 47.7246 14.5195C47.2579 14.9329 46.6446 15.1395 45.8846 15.1395ZM48.0846 16.0395V27.3195H43.6446V16.0395H48.0846ZM54.1499 15.8995C54.8833 15.8995 55.5166 16.0529 56.0499 16.3595C56.5833 16.6529 56.9899 17.0595 57.2699 17.5795V16.0395H61.6899V27.1195C61.6899 28.1729 61.4966 29.1329 61.1099 29.9995C60.7233 30.8662 60.0966 31.5595 59.2299 32.0795C58.3766 32.5995 57.2766 32.8595 55.9299 32.8595C54.1166 32.8595 52.6766 32.4329 51.6099 31.5795C50.5566 30.7395 49.9566 29.5929 49.8099 28.1395H54.1699C54.2899 28.7262 54.7699 29.0195 55.6099 29.0195C56.1299 29.0195 56.5366 28.8862 56.8299 28.6195C57.1233 28.3529 57.2699 27.8529 57.2699 27.1195V25.7795C56.9899 26.2995 56.5833 26.7129 56.0499 27.0195C55.5166 27.3129 54.8833 27.4595 54.1499 27.4595C53.2699 27.4595 52.4766 27.2329 51.7699 26.7795C51.0633 26.3129 50.5033 25.6462 50.0899 24.7795C49.6899 23.8995 49.4899 22.8662 49.4899 21.6795C49.4899 20.4929 49.6899 19.4662 50.0899 18.5995C50.5033 17.7195 51.0633 17.0529 51.7699 16.5995C52.4766 16.1329 53.2699 15.8995 54.1499 15.8995ZM57.2699 21.6795C57.2699 21.0795 57.1166 20.6129 56.8099 20.2795C56.5033 19.9462 56.1099 19.7795 55.6299 19.7795C55.1499 19.7795 54.7566 19.9462 54.4499 20.2795C54.1433 20.6129 53.9899 21.0795 53.9899 21.6795C53.9899 22.2795 54.1433 22.7462 54.4499 23.0795C54.7566 23.4129 55.1499 23.5795 55.6299 23.5795C56.1099 23.5795 56.5033 23.4129 56.8099 23.0795C57.1166 22.7462 57.2699 22.2795 57.2699 21.6795ZM71.5837 15.9595C72.877 15.9595 73.8837 16.3929 74.6037 17.2595C75.337 18.1262 75.7037 19.2995 75.7037 20.7795V27.3195H71.2837V21.3395C71.2837 20.8062 71.137 20.3862 70.8437 20.0795C70.5637 19.7595 70.1837 19.5995 69.7037 19.5995C69.2103 19.5995 68.8237 19.7595 68.5437 20.0795C68.2637 20.3862 68.1237 20.8062 68.1237 21.3395V27.3195H63.6837V12.5195H68.1237V17.7595C68.4703 17.2262 68.9303 16.7929 69.5037 16.4595C70.0903 16.1262 70.7837 15.9595 71.5837 15.9595ZM84.649 23.5395V27.3195H82.969C79.8756 27.3195 78.329 25.7795 78.329 22.6995V19.7395H76.929V16.0395H78.329V13.3195H82.769V16.0395H84.609V19.7395H82.769V22.7795C82.769 23.0462 82.829 23.2395 82.949 23.3595C83.0823 23.4795 83.2956 23.5395 83.589 23.5395H84.649Z" fill="#03045E"/>
<path d="M60.9567 35.84C62.4367 35.84 63.73 36.14 64.8367 36.74C65.9567 37.34 66.8167 38.1733 67.4167 39.24C68.0167 40.3067 68.3167 41.52 68.3167 42.88C68.3167 44.2267 68.0167 45.44 67.4167 46.52C66.8167 47.6 65.9567 48.4533 64.8367 49.08C63.73 49.6933 62.4367 50 60.9567 50H55.0567V35.84H60.9567ZM60.5567 46.04C61.5567 46.04 62.35 45.7667 62.9367 45.22C63.5233 44.6733 63.8167 43.8933 63.8167 42.88C63.8167 41.8667 63.5233 41.0867 62.9367 40.54C62.35 39.9933 61.5567 39.72 60.5567 39.72H59.4967V46.04H60.5567ZM74.3599 40.8C74.8133 40.1467 75.3666 39.6267 76.0199 39.24C76.6733 38.84 77.3533 38.64 78.0599 38.64V43.38H76.7999C75.9599 43.38 75.3399 43.5267 74.9399 43.82C74.5533 44.1133 74.3599 44.6333 74.3599 45.38V50H69.9199V38.72H74.3599V40.8ZM90.1759 44.26C90.1759 44.5667 90.1559 44.86 90.1159 45.14H82.9759C83.0426 46.1133 83.4492 46.6 84.1959 46.6C84.6759 46.6 85.0226 46.38 85.2359 45.94H89.9359C89.7759 46.74 89.4359 47.46 88.9159 48.1C88.4092 48.7267 87.7626 49.2267 86.9759 49.6C86.2026 49.96 85.3492 50.14 84.4159 50.14C83.2959 50.14 82.2959 49.9067 81.4159 49.44C80.5492 48.9733 79.8692 48.3067 79.3759 47.44C78.8959 46.56 78.6559 45.5333 78.6559 44.36C78.6559 43.1867 78.8959 42.1667 79.3759 41.3C79.8692 40.42 80.5492 39.7467 81.4159 39.28C82.2959 38.8133 83.2959 38.58 84.4159 38.58C85.5359 38.58 86.5292 38.8133 87.3959 39.28C88.2759 39.7333 88.9559 40.3867 89.4359 41.24C89.9292 42.0933 90.1759 43.1 90.1759 44.26ZM85.6759 43.2C85.6759 42.8267 85.5559 42.5467 85.3159 42.36C85.0759 42.16 84.7759 42.06 84.4159 42.06C83.6292 42.06 83.1692 42.44 83.0359 43.2H85.6759ZM90.9801 44.36C90.9801 43.1733 91.1801 42.1467 91.5801 41.28C91.9934 40.4 92.5534 39.7333 93.2601 39.28C93.9668 38.8133 94.7601 38.58 95.6401 38.58C96.3734 38.58 97.0068 38.7333 97.5401 39.04C98.0734 39.3333 98.4801 39.74 98.7601 40.26V38.72H103.18V50H98.7601V48.46C98.4801 48.98 98.0734 49.3933 97.5401 49.7C97.0068 49.9933 96.3734 50.14 95.6401 50.14C94.7601 50.14 93.9668 49.9133 93.2601 49.46C92.5534 48.9933 91.9934 48.3267 91.5801 47.46C91.1801 46.58 90.9801 45.5467 90.9801 44.36ZM98.7601 44.36C98.7601 43.76 98.6068 43.2933 98.3001 42.96C97.9934 42.6267 97.6001 42.46 97.1201 42.46C96.6401 42.46 96.2468 42.6267 95.9401 42.96C95.6334 43.2933 95.4801 43.76 95.4801 44.36C95.4801 44.96 95.6334 45.4267 95.9401 45.76C96.2468 46.0933 96.6401 46.26 97.1201 46.26C97.6001 46.26 97.9934 46.0933 98.3001 45.76C98.6068 45.4267 98.7601 44.96 98.7601 44.36ZM120.234 38.64C121.674 38.64 122.787 39.0733 123.574 39.94C124.374 40.8067 124.774 41.98 124.774 43.46V50H120.354V44.02C120.354 43.54 120.207 43.1667 119.914 42.9C119.634 42.62 119.254 42.48 118.774 42.48C118.281 42.48 117.894 42.62 117.614 42.9C117.334 43.1667 117.194 43.54 117.194 44.02V50H112.774V44.02C112.774 43.54 112.627 43.1667 112.334 42.9C112.054 42.62 111.674 42.48 111.194 42.48C110.701 42.48 110.314 42.62 110.034 42.9C109.754 43.1667 109.614 43.54 109.614 44.02V50H105.174V38.72H109.614V40.24C109.934 39.76 110.367 39.3733 110.914 39.08C111.474 38.7867 112.127 38.64 112.874 38.64C113.687 38.64 114.407 38.82 115.034 39.18C115.661 39.5267 116.161 40.02 116.534 40.66C116.947 40.0733 117.474 39.5933 118.114 39.22C118.754 38.8333 119.461 38.64 120.234 38.64Z" fill="#03045E"/>
<path d="M49.3393 39.8935C51.1556 39.8935 54.2979 41.1959 54.2768 42.7678C54.255 44.3847 51.0782 45.6422 49.2619 45.6422H43.0696L37.6259 53.5422C37.3172 53.9868 36.7505 54.2653 36.1398 54.2653H33.1551C32.5922 54.2653 32.1894 53.8072 32.3496 53.3491L35.061 45.6422H29.5962L27.2671 48.2291C27.1043 48.4088 26.8511 48.5165 26.5835 48.5165H24.3546C23.9432 48.5165 23.6133 48.2336 23.6185 47.8474C23.6187 47.8294 23.6291 47.771 23.6489 47.7126L25.3863 42.7678L23.7821 37.823C23.7639 37.7646 23.755 37.7063 23.7558 37.6479C23.7604 37.3021 24.098 37.0191 24.5093 37.0191H26.7383C27.0059 37.0191 27.2562 37.1269 27.4142 37.3065L29.6736 39.8935H35.1384L32.6345 32.1866C32.4867 31.7271 32.9018 31.2704 33.4647 31.2704H36.4494C37.0601 31.2704 37.6193 31.5467 37.916 31.9944L43.147 39.8935H49.3393Z" fill="#03045E"/>
</svg>
