<svg width="163" height="76" viewBox="0 0 163 76" fill="none" xmlns="http://www.w3.org/2000/svg">
<path d="M70.044 19.008V23.232H63.372V25.584H68.172V29.592H63.372V36H58.044V19.008H70.044ZM77.1767 18.24V36H71.8487V18.24H77.1767ZM82.2711 21.384C81.3431 21.384 80.5991 21.136 80.0391 20.64C79.4791 20.144 79.1991 19.52 79.1991 18.768C79.1991 18 79.4791 17.368 80.0391 16.872C80.5991 16.36 81.3431 16.104 82.2711 16.104C83.1831 16.104 83.9191 16.36 84.4791 16.872C85.0391 17.368 85.3191 18 85.3191 18.768C85.3191 19.52 85.0391 20.144 84.4791 20.64C83.9191 21.136 83.1831 21.384 82.2711 21.384ZM84.9111 22.464V36H79.5831V22.464H84.9111ZM92.1895 22.296C93.0695 22.296 93.8295 22.48 94.4695 22.848C95.1095 23.2 95.5975 23.688 95.9335 24.312V22.464H101.237V35.76C101.237 37.024 101.005 38.176 100.541 39.216C100.077 40.256 99.3255 41.088 98.2855 41.712C97.2615 42.336 95.9415 42.648 94.3255 42.648C92.1495 42.648 90.4215 42.136 89.1415 41.112C87.8775 40.104 87.1575 38.728 86.9815 36.984H92.2135C92.3575 37.688 92.9335 38.04 93.9415 38.04C94.5655 38.04 95.0535 37.88 95.4055 37.56C95.7575 37.24 95.9335 36.64 95.9335 35.76V34.152C95.5975 34.776 95.1095 35.272 94.4695 35.64C93.8295 35.992 93.0695 36.168 92.1895 36.168C91.1335 36.168 90.1815 35.896 89.3335 35.352C88.4855 34.792 87.8135 33.992 87.3175 32.952C86.8375 31.896 86.5975 30.656 86.5975 29.232C86.5975 27.808 86.8375 26.576 87.3175 25.536C87.8135 24.48 88.4855 23.68 89.3335 23.136C90.1815 22.576 91.1335 22.296 92.1895 22.296ZM95.9335 29.232C95.9335 28.512 95.7495 27.952 95.3815 27.552C95.0135 27.152 94.5415 26.952 93.9655 26.952C93.3895 26.952 92.9175 27.152 92.5495 27.552C92.1815 27.952 91.9975 28.512 91.9975 29.232C91.9975 29.952 92.1815 30.512 92.5495 30.912C92.9175 31.312 93.3895 31.512 93.9655 31.512C94.5415 31.512 95.0135 31.312 95.3815 30.912C95.7495 30.512 95.9335 29.952 95.9335 29.232ZM113.11 22.368C114.662 22.368 115.87 22.888 116.734 23.928C117.614 24.968 118.054 26.376 118.054 28.152V36H112.75V28.824C112.75 28.184 112.574 27.68 112.222 27.312C111.886 26.928 111.43 26.736 110.854 26.736C110.262 26.736 109.798 26.928 109.462 27.312C109.126 27.68 108.958 28.184 108.958 28.824V36H103.63V18.24H108.958V24.528C109.374 23.888 109.926 23.368 110.614 22.968C111.318 22.568 112.15 22.368 113.11 22.368ZM128.788 31.464V36H126.772C123.06 36 121.204 34.152 121.204 30.456V26.904H119.524V22.464H121.204V19.2H126.532V22.464H128.74V26.904H126.532V30.552C126.532 30.872 126.604 31.104 126.748 31.248C126.908 31.392 127.164 31.464 127.516 31.464H128.788Z" fill="#00B4D8"/>
<path d="M48.1418 43.3926C49.9178 43.3926 51.4698 43.7526 52.7978 44.4726C54.1418 45.1926 55.1738 46.1926 55.8938 47.4726C56.6138 48.7526 56.9738 50.2086 56.9738 51.8406C56.9738 53.4566 56.6138 54.9126 55.8938 56.2086C55.1738 57.5046 54.1418 58.5286 52.7978 59.2806C51.4698 60.0166 49.9178 60.3846 48.1418 60.3846H41.0618V43.3926H48.1418ZM47.6618 55.6326C48.8618 55.6326 49.8138 55.3046 50.5178 54.6486C51.2218 53.9926 51.5738 53.0566 51.5738 51.8406C51.5738 50.6246 51.2218 49.6886 50.5178 49.0326C49.8138 48.3766 48.8618 48.0486 47.6618 48.0486H46.3898V55.6326H47.6618ZM64.2257 49.3446C64.7697 48.5606 65.4337 47.9366 66.2177 47.4726C67.0017 46.9926 67.8177 46.7526 68.6657 46.7526V52.4406H67.1537C66.1457 52.4406 65.4017 52.6166 64.9217 52.9686C64.4577 53.3206 64.2257 53.9446 64.2257 54.8406V60.3846H58.8977V46.8486H64.2257V49.3446ZM83.2048 53.4966C83.2048 53.8646 83.1808 54.2166 83.1328 54.5526H74.5648C74.6448 55.7206 75.1328 56.3046 76.0288 56.3046C76.6048 56.3046 77.0208 56.0406 77.2768 55.5126H82.9168C82.7248 56.4726 82.3168 57.3366 81.6928 58.1046C81.0848 58.8566 80.3088 59.4566 79.3648 59.9046C78.4368 60.3366 77.4128 60.5526 76.2928 60.5526C74.9488 60.5526 73.7488 60.2726 72.6928 59.7126C71.6528 59.1526 70.8368 58.3526 70.2448 57.3126C69.6688 56.2566 69.3808 55.0246 69.3808 53.6166C69.3808 52.2086 69.6688 50.9846 70.2448 49.9446C70.8368 48.8886 71.6528 48.0806 72.6928 47.5206C73.7488 46.9606 74.9488 46.6806 76.2928 46.6806C77.6368 46.6806 78.8288 46.9606 79.8688 47.5206C80.9248 48.0646 81.7408 48.8486 82.3168 49.8726C82.9088 50.8966 83.2048 52.1046 83.2048 53.4966ZM77.8048 52.2246C77.8048 51.7766 77.6608 51.4406 77.3728 51.2166C77.0848 50.9766 76.7248 50.8566 76.2928 50.8566C75.3488 50.8566 74.7968 51.3126 74.6368 52.2246H77.8048ZM84.1699 53.6166C84.1699 52.1926 84.4099 50.9606 84.8899 49.9206C85.3859 48.8646 86.0579 48.0646 86.9059 47.5206C87.7539 46.9606 88.7059 46.6806 89.7619 46.6806C90.6419 46.6806 91.4019 46.8646 92.0419 47.2326C92.6819 47.5846 93.1699 48.0726 93.5059 48.6966V46.8486H98.8099V60.3846H93.5059V58.5366C93.1699 59.1606 92.6819 59.6566 92.0419 60.0246C91.4019 60.3766 90.6419 60.5526 89.7619 60.5526C88.7059 60.5526 87.7539 60.2806 86.9059 59.7366C86.0579 59.1766 85.3859 58.3766 84.8899 57.3366C84.4099 56.2806 84.1699 55.0406 84.1699 53.6166ZM93.5059 53.6166C93.5059 52.8966 93.3219 52.3366 92.9539 51.9366C92.5859 51.5366 92.1139 51.3366 91.5379 51.3366C90.9619 51.3366 90.4899 51.5366 90.1219 51.9366C89.7539 52.3366 89.5699 52.8966 89.5699 53.6166C89.5699 54.3366 89.7539 54.8966 90.1219 55.2966C90.4899 55.6966 90.9619 55.8966 91.5379 55.8966C92.1139 55.8966 92.5859 55.6966 92.9539 55.2966C93.3219 54.8966 93.5059 54.3366 93.5059 53.6166ZM119.274 46.7526C121.002 46.7526 122.338 47.2726 123.282 48.3126C124.242 49.3526 124.722 50.7606 124.722 52.5366V60.3846H119.418V53.2086C119.418 52.6326 119.242 52.1846 118.89 51.8646C118.554 51.5286 118.098 51.3606 117.522 51.3606C116.93 51.3606 116.466 51.5286 116.13 51.8646C115.794 52.1846 115.626 52.6326 115.626 53.2086V60.3846H110.322V53.2086C110.322 52.6326 110.146 52.1846 109.794 51.8646C109.458 51.5286 109.002 51.3606 108.426 51.3606C107.834 51.3606 107.37 51.5286 107.034 51.8646C106.698 52.1846 106.53 52.6326 106.53 53.2086V60.3846H101.202V46.8486H106.53V48.6726C106.914 48.0966 107.434 47.6326 108.09 47.2806C108.762 46.9286 109.546 46.7526 110.442 46.7526C111.418 46.7526 112.282 46.9686 113.034 47.4006C113.786 47.8166 114.386 48.4086 114.834 49.1766C115.33 48.4726 115.962 47.8966 116.73 47.4486C117.498 46.9846 118.346 46.7526 119.274 46.7526Z" fill="#00B4D8"/>
<path d="M39.584 15.4065C41.7738 13.5691 46.898 11.9391 48.4846 13.8299C50.1165 15.7748 47.5761 20.4841 45.3864 22.3215L37.9208 28.5859L39.4597 43.488C39.5435 44.3291 39.1459 45.2335 38.4095 45.8513L34.8112 48.8707C34.1325 49.4402 33.1771 49.3028 32.9004 48.596L28.2654 36.6877L21.677 42.216L21.522 47.6487C21.51 48.0271 21.3153 48.4114 20.9926 48.6822L18.3054 50.937C17.8094 51.3532 17.1215 51.3504 16.7316 50.8858C16.7135 50.8642 16.6662 50.7842 16.6302 50.6948L13.6536 43.0566L6.64834 38.7989C6.56648 38.7479 6.49591 38.6874 6.43698 38.6172C6.08794 38.2012 6.2047 37.5232 6.70066 37.1071L9.38789 34.8522C9.71059 34.5814 10.1229 34.4564 10.4976 34.5103L15.8746 35.3011L22.463 29.7727L11.5405 23.1403C10.8911 22.7434 10.9231 21.7803 11.6018 21.2108L15.2001 18.1914C15.9365 17.5736 16.8941 17.3365 17.7108 17.5687L32.1184 21.6709L39.584 15.4065Z" fill="#01BADF"/>
</svg>
