<svg width="139" height="74" viewBox="0 0 139 74" fill="none" xmlns="http://www.w3.org/2000/svg">
<path d="M46.044 17.008V21.232H39.372V23.584H44.172V27.592H39.372V34H34.044V17.008H46.044ZM53.1767 16.24V34H47.8487V16.24H53.1767ZM58.2711 19.384C57.3431 19.384 56.5991 19.136 56.0391 18.64C55.4791 18.144 55.1991 17.52 55.1991 16.768C55.1991 16 55.4791 15.368 56.0391 14.872C56.5991 14.36 57.3431 14.104 58.2711 14.104C59.1831 14.104 59.9191 14.36 60.4791 14.872C61.0391 15.368 61.3191 16 61.3191 16.768C61.3191 17.52 61.0391 18.144 60.4791 18.64C59.9191 19.136 59.1831 19.384 58.2711 19.384ZM60.9111 20.464V34H55.5831V20.464H60.9111ZM68.1895 20.296C69.0695 20.296 69.8295 20.48 70.4695 20.848C71.1095 21.2 71.5975 21.688 71.9335 22.312V20.464H77.2375V33.76C77.2375 35.024 77.0055 36.176 76.5415 37.216C76.0775 38.256 75.3255 39.088 74.2855 39.712C73.2615 40.336 71.9415 40.648 70.3255 40.648C68.1495 40.648 66.4215 40.136 65.1415 39.112C63.8775 38.104 63.1575 36.728 62.9815 34.984H68.2135C68.3575 35.688 68.9335 36.04 69.9415 36.04C70.5655 36.04 71.0535 35.88 71.4055 35.56C71.7575 35.24 71.9335 34.64 71.9335 33.76V32.152C71.5975 32.776 71.1095 33.272 70.4695 33.64C69.8295 33.992 69.0695 34.168 68.1895 34.168C67.1335 34.168 66.1815 33.896 65.3335 33.352C64.4855 32.792 63.8135 31.992 63.3175 30.952C62.8375 29.896 62.5975 28.656 62.5975 27.232C62.5975 25.808 62.8375 24.576 63.3175 23.536C63.8135 22.48 64.4855 21.68 65.3335 21.136C66.1815 20.576 67.1335 20.296 68.1895 20.296ZM71.9335 27.232C71.9335 26.512 71.7495 25.952 71.3815 25.552C71.0135 25.152 70.5415 24.952 69.9655 24.952C69.3895 24.952 68.9175 25.152 68.5495 25.552C68.1815 25.952 67.9975 26.512 67.9975 27.232C67.9975 27.952 68.1815 28.512 68.5495 28.912C68.9175 29.312 69.3895 29.512 69.9655 29.512C70.5415 29.512 71.0135 29.312 71.3815 28.912C71.7495 28.512 71.9335 27.952 71.9335 27.232ZM89.11 20.368C90.662 20.368 91.87 20.888 92.734 21.928C93.614 22.968 94.054 24.376 94.054 26.152V34H88.75V26.824C88.75 26.184 88.574 25.68 88.222 25.312C87.886 24.928 87.43 24.736 86.854 24.736C86.262 24.736 85.798 24.928 85.462 25.312C85.126 25.68 84.958 26.184 84.958 26.824V34H79.63V16.24H84.958V22.528C85.374 21.888 85.926 21.368 86.614 20.968C87.318 20.568 88.15 20.368 89.11 20.368ZM104.788 29.464V34H102.772C99.0604 34 97.2044 32.152 97.2044 28.456V24.904H95.5244V20.464H97.2044V17.2H102.532V20.464H104.74V24.904H102.532V28.552C102.532 28.872 102.604 29.104 102.748 29.248C102.908 29.392 103.164 29.464 103.516 29.464H104.788Z" fill="#00B4D8"/>
<path d="M24.1418 41.3926C25.9178 41.3926 27.4698 41.7526 28.7978 42.4726C30.1418 43.1926 31.1738 44.1926 31.8938 45.4726C32.6138 46.7526 32.9738 48.2086 32.9738 49.8406C32.9738 51.4566 32.6138 52.9126 31.8938 54.2086C31.1738 55.5046 30.1418 56.5286 28.7978 57.2806C27.4698 58.0166 25.9178 58.3846 24.1418 58.3846H17.0618V41.3926H24.1418ZM23.6618 53.6326C24.8618 53.6326 25.8138 53.3046 26.5178 52.6486C27.2218 51.9926 27.5738 51.0566 27.5738 49.8406C27.5738 48.6246 27.2218 47.6886 26.5178 47.0326C25.8138 46.3766 24.8618 46.0486 23.6618 46.0486H22.3898V53.6326H23.6618ZM40.2257 47.3446C40.7697 46.5606 41.4337 45.9366 42.2177 45.4726C43.0017 44.9926 43.8177 44.7526 44.6657 44.7526V50.4406H43.1537C42.1457 50.4406 41.4017 50.6166 40.9217 50.9686C40.4577 51.3206 40.2257 51.9446 40.2257 52.8406V58.3846H34.8977V44.8486H40.2257V47.3446ZM59.2048 51.4966C59.2048 51.8646 59.1808 52.2166 59.1328 52.5526H50.5648C50.6448 53.7206 51.1328 54.3046 52.0288 54.3046C52.6048 54.3046 53.0208 54.0406 53.2768 53.5126H58.9168C58.7248 54.4726 58.3168 55.3366 57.6928 56.1046C57.0848 56.8566 56.3088 57.4566 55.3648 57.9046C54.4368 58.3366 53.4128 58.5526 52.2928 58.5526C50.9488 58.5526 49.7488 58.2726 48.6928 57.7126C47.6528 57.1526 46.8368 56.3526 46.2448 55.3126C45.6688 54.2566 45.3808 53.0246 45.3808 51.6166C45.3808 50.2086 45.6688 48.9846 46.2448 47.9446C46.8368 46.8886 47.6528 46.0806 48.6928 45.5206C49.7488 44.9606 50.9488 44.6806 52.2928 44.6806C53.6368 44.6806 54.8288 44.9606 55.8688 45.5206C56.9248 46.0646 57.7408 46.8486 58.3168 47.8726C58.9088 48.8966 59.2048 50.1046 59.2048 51.4966ZM53.8048 50.2246C53.8048 49.7766 53.6608 49.4406 53.3728 49.2166C53.0848 48.9766 52.7248 48.8566 52.2928 48.8566C51.3488 48.8566 50.7968 49.3126 50.6368 50.2246H53.8048ZM60.1699 51.6166C60.1699 50.1926 60.4099 48.9606 60.8899 47.9206C61.3859 46.8646 62.0579 46.0646 62.9059 45.5206C63.7539 44.9606 64.7059 44.6806 65.7619 44.6806C66.6419 44.6806 67.4019 44.8646 68.0419 45.2326C68.6819 45.5846 69.1699 46.0726 69.5059 46.6966V44.8486H74.8099V58.3846H69.5059V56.5366C69.1699 57.1606 68.6819 57.6566 68.0419 58.0246C67.4019 58.3766 66.6419 58.5526 65.7619 58.5526C64.7059 58.5526 63.7539 58.2806 62.9059 57.7366C62.0579 57.1766 61.3859 56.3766 60.8899 55.3366C60.4099 54.2806 60.1699 53.0406 60.1699 51.6166ZM69.5059 51.6166C69.5059 50.8966 69.3219 50.3366 68.9539 49.9366C68.5859 49.5366 68.1139 49.3366 67.5379 49.3366C66.9619 49.3366 66.4899 49.5366 66.1219 49.9366C65.7539 50.3366 65.5699 50.8966 65.5699 51.6166C65.5699 52.3366 65.7539 52.8966 66.1219 53.2966C66.4899 53.6966 66.9619 53.8966 67.5379 53.8966C68.1139 53.8966 68.5859 53.6966 68.9539 53.2966C69.3219 52.8966 69.5059 52.3366 69.5059 51.6166ZM95.2744 44.7526C97.0024 44.7526 98.3384 45.2726 99.2824 46.3126C100.242 47.3526 100.722 48.7606 100.722 50.5366V58.3846H95.4184V51.2086C95.4184 50.6326 95.2424 50.1846 94.8904 49.8646C94.5544 49.5286 94.0984 49.3606 93.5224 49.3606C92.9304 49.3606 92.4664 49.5286 92.1304 49.8646C91.7944 50.1846 91.6264 50.6326 91.6264 51.2086V58.3846H86.3224V51.2086C86.3224 50.6326 86.1464 50.1846 85.7944 49.8646C85.4584 49.5286 85.0024 49.3606 84.4264 49.3606C83.8344 49.3606 83.3704 49.5286 83.0344 49.8646C82.6984 50.1846 82.5304 50.6326 82.5304 51.2086V58.3846H77.2024V44.8486H82.5304V46.6726C82.9144 46.0966 83.4344 45.6326 84.0904 45.2806C84.7624 44.9286 85.5464 44.7526 86.4424 44.7526C87.4184 44.7526 88.2824 44.9686 89.0344 45.4006C89.7864 45.8166 90.3864 46.4086 90.8344 47.1766C91.3304 46.4726 91.9624 45.8966 92.7304 45.4486C93.4984 44.9846 94.3464 44.7526 95.2744 44.7526Z" fill="#00B4D8"/>
</svg>
