<svg width="131" height="62" viewBox="0 0 131 62" fill="none" xmlns="http://www.w3.org/2000/svg">
<path d="M14.6954 7.15952V10.6795H9.13539V12.6395H13.1354V15.9795H9.13539V21.3195H4.69539V7.15952H14.6954ZM20.6393 6.51952V21.3195H16.1993V6.51952H20.6393ZM24.8846 9.13952C24.1113 9.13952 23.4913 8.93285 23.0246 8.51952C22.5579 8.10619 22.3246 7.58619 22.3246 6.95952C22.3246 6.31952 22.5579 5.79285 23.0246 5.37952C23.4913 4.95285 24.1113 4.73952 24.8846 4.73952C25.6446 4.73952 26.2579 4.95285 26.7246 5.37952C27.1913 5.79285 27.4246 6.31952 27.4246 6.95952C27.4246 7.58619 27.1913 8.10619 26.7246 8.51952C26.2579 8.93285 25.6446 9.13952 24.8846 9.13952ZM27.0846 10.0395V21.3195H22.6446V10.0395H27.0846ZM33.1499 9.89952C33.8833 9.89952 34.5166 10.0529 35.0499 10.3595C35.5833 10.6529 35.9899 11.0595 36.2699 11.5795V10.0395H40.6899V21.1195C40.6899 22.1729 40.4966 23.1329 40.1099 23.9995C39.7233 24.8662 39.0966 25.5595 38.2299 26.0795C37.3766 26.5995 36.2766 26.8595 34.9299 26.8595C33.1166 26.8595 31.6766 26.4329 30.6099 25.5795C29.5566 24.7395 28.9566 23.5929 28.8099 22.1395H33.1699C33.2899 22.7262 33.7699 23.0195 34.6099 23.0195C35.1299 23.0195 35.5366 22.8862 35.8299 22.6195C36.1233 22.3529 36.2699 21.8529 36.2699 21.1195V19.7795C35.9899 20.2995 35.5833 20.7129 35.0499 21.0195C34.5166 21.3129 33.8833 21.4595 33.1499 21.4595C32.2699 21.4595 31.4766 21.2329 30.7699 20.7795C30.0633 20.3129 29.5033 19.6462 29.0899 18.7795C28.6899 17.8995 28.4899 16.8662 28.4899 15.6795C28.4899 14.4929 28.6899 13.4662 29.0899 12.5995C29.5033 11.7195 30.0633 11.0529 30.7699 10.5995C31.4766 10.1329 32.2699 9.89952 33.1499 9.89952ZM36.2699 15.6795C36.2699 15.0795 36.1166 14.6129 35.8099 14.2795C35.5033 13.9462 35.1099 13.7795 34.6299 13.7795C34.1499 13.7795 33.7566 13.9462 33.4499 14.2795C33.1433 14.6129 32.9899 15.0795 32.9899 15.6795C32.9899 16.2795 33.1433 16.7462 33.4499 17.0795C33.7566 17.4129 34.1499 17.5795 34.6299 17.5795C35.1099 17.5795 35.5033 17.4129 35.8099 17.0795C36.1166 16.7462 36.2699 16.2795 36.2699 15.6795ZM50.5837 9.95952C51.877 9.95952 52.8837 10.3929 53.6037 11.2595C54.337 12.1262 54.7037 13.2995 54.7037 14.7795V21.3195H50.2837V15.3395C50.2837 14.8062 50.137 14.3862 49.8437 14.0795C49.5637 13.7595 49.1837 13.5995 48.7037 13.5995C48.2103 13.5995 47.8237 13.7595 47.5437 14.0795C47.2637 14.3862 47.1237 14.8062 47.1237 15.3395V21.3195H42.6837V6.51952H47.1237V11.7595C47.4703 11.2262 47.9303 10.7929 48.5037 10.4595C49.0903 10.1262 49.7837 9.95952 50.5837 9.95952ZM63.649 17.5395V21.3195H61.969C58.8756 21.3195 57.329 19.7795 57.329 16.6995V13.7395H55.929V10.0395H57.329V7.31952H61.769V10.0395H63.609V13.7395H61.769V16.7795C61.769 17.0462 61.829 17.2395 61.949 17.3595C62.0823 17.4795 62.2956 17.5395 62.589 17.5395H63.649Z" fill="#00B4D8"/>
<path d="M39.9567 29.84C41.4367 29.84 42.73 30.14 43.8367 30.74C44.9567 31.34 45.8167 32.1733 46.4167 33.24C47.0167 34.3067 47.3167 35.52 47.3167 36.88C47.3167 38.2267 47.0167 39.44 46.4167 40.52C45.8167 41.6 44.9567 42.4533 43.8367 43.08C42.73 43.6933 41.4367 44 39.9567 44H34.0567V29.84H39.9567ZM39.5567 40.04C40.5567 40.04 41.35 39.7667 41.9367 39.22C42.5233 38.6733 42.8167 37.8933 42.8167 36.88C42.8167 35.8667 42.5233 35.0867 41.9367 34.54C41.35 33.9933 40.5567 33.72 39.5567 33.72H38.4967V40.04H39.5567ZM53.3599 34.8C53.8133 34.1467 54.3666 33.6267 55.0199 33.24C55.6733 32.84 56.3533 32.64 57.0599 32.64V37.38H55.7999C54.9599 37.38 54.3399 37.5267 53.9399 37.82C53.5533 38.1133 53.3599 38.6333 53.3599 39.38V44H48.9199V32.72H53.3599V34.8ZM69.1759 38.26C69.1759 38.5667 69.1559 38.86 69.1159 39.14H61.9759C62.0426 40.1133 62.4492 40.6 63.1959 40.6C63.6759 40.6 64.0226 40.38 64.2359 39.94H68.9359C68.7759 40.74 68.4359 41.46 67.9159 42.1C67.4092 42.7267 66.7626 43.2267 65.9759 43.6C65.2026 43.96 64.3492 44.14 63.4159 44.14C62.2959 44.14 61.2959 43.9067 60.4159 43.44C59.5492 42.9733 58.8692 42.3067 58.3759 41.44C57.8959 40.56 57.6559 39.5333 57.6559 38.36C57.6559 37.1867 57.8959 36.1667 58.3759 35.3C58.8692 34.42 59.5492 33.7467 60.4159 33.28C61.2959 32.8133 62.2959 32.58 63.4159 32.58C64.5359 32.58 65.5292 32.8133 66.3959 33.28C67.2759 33.7333 67.9559 34.3867 68.4359 35.24C68.9292 36.0933 69.1759 37.1 69.1759 38.26ZM64.6759 37.2C64.6759 36.8267 64.5559 36.5467 64.3159 36.36C64.0759 36.16 63.7759 36.06 63.4159 36.06C62.6292 36.06 62.1692 36.44 62.0359 37.2H64.6759ZM69.9801 38.36C69.9801 37.1733 70.1801 36.1467 70.5801 35.28C70.9934 34.4 71.5534 33.7333 72.2601 33.28C72.9668 32.8133 73.7601 32.58 74.6401 32.58C75.3734 32.58 76.0068 32.7333 76.5401 33.04C77.0734 33.3333 77.4801 33.74 77.7601 34.26V32.72H82.1801V44H77.7601V42.46C77.4801 42.98 77.0734 43.3933 76.5401 43.7C76.0068 43.9933 75.3734 44.14 74.6401 44.14C73.7601 44.14 72.9668 43.9133 72.2601 43.46C71.5534 42.9933 70.9934 42.3267 70.5801 41.46C70.1801 40.58 69.9801 39.5467 69.9801 38.36ZM77.7601 38.36C77.7601 37.76 77.6068 37.2933 77.3001 36.96C76.9934 36.6267 76.6001 36.46 76.1201 36.46C75.6401 36.46 75.2468 36.6267 74.9401 36.96C74.6334 37.2933 74.4801 37.76 74.4801 38.36C74.4801 38.96 74.6334 39.4267 74.9401 39.76C75.2468 40.0933 75.6401 40.26 76.1201 40.26C76.6001 40.26 76.9934 40.0933 77.3001 39.76C77.6068 39.4267 77.7601 38.96 77.7601 38.36ZM99.2339 32.64C100.674 32.64 101.787 33.0733 102.574 33.94C103.374 34.8067 103.774 35.98 103.774 37.46V44H99.3539V38.02C99.3539 37.54 99.2072 37.1667 98.9139 36.9C98.6339 36.62 98.2539 36.48 97.7739 36.48C97.2805 36.48 96.8939 36.62 96.6139 36.9C96.3339 37.1667 96.1939 37.54 96.1939 38.02V44H91.7739V38.02C91.7739 37.54 91.6272 37.1667 91.3339 36.9C91.0539 36.62 90.6739 36.48 90.1939 36.48C89.7005 36.48 89.3139 36.62 89.0339 36.9C88.7539 37.1667 88.6139 37.54 88.6139 38.02V44H84.1739V32.72H88.6139V34.24C88.9339 33.76 89.3672 33.3733 89.9139 33.08C90.4739 32.7867 91.1272 32.64 91.8739 32.64C92.6872 32.64 93.4072 32.82 94.0339 33.18C94.6605 33.5267 95.1605 34.02 95.5339 34.66C95.9472 34.0733 96.4739 33.5933 97.1139 33.22C97.7539 32.8333 98.4605 32.64 99.2339 32.64Z" fill="#00B4D8"/>
<path d="M28.3393 33.8935C30.1556 33.8935 33.2979 35.1959 33.2768 36.7678C33.255 38.3847 30.0782 39.6422 28.2619 39.6422H22.0696L16.6259 47.5422C16.3172 47.9868 15.7505 48.2653 15.1398 48.2653H12.1551C11.5922 48.2653 11.1894 47.8072 11.3496 47.3491L14.061 39.6422H8.59619L6.26712 42.2291C6.10432 42.4088 5.85114 42.5165 5.58347 42.5165H3.35455C2.94318 42.5165 2.61326 42.2336 2.61846 41.8474C2.6187 41.8294 2.62915 41.771 2.64894 41.7126L4.38629 36.7678L2.78209 31.823C2.76386 31.7646 2.755 31.7063 2.75578 31.6479C2.76044 31.3021 3.09797 31.0191 3.50935 31.0191H5.73827C6.00593 31.0191 6.25621 31.1269 6.41417 31.3065L8.67359 33.8935H14.1384L11.6345 26.1866C11.4867 25.7271 11.9018 25.2704 12.4647 25.2704H15.4494C16.0601 25.2704 16.6193 25.5467 16.916 25.9944L22.147 33.8935H28.3393Z" fill="#01BADF"/>
</svg>
